<?xml version="1.0" encoding="utf-8"?>
<!-- Generator: Adobe Illustrator 22.1.0, SVG Export Plug-In . SVG Version: 6.00 Build 0)  -->
<svg version="1.1" id="Capa_1" xmlns="http://www.w3.org/2000/svg" xmlns:xlink="http://www.w3.org/1999/xlink" x="0px" y="0px"
	 width="130px" height="42px" viewBox="0 0 130 42" enable-background="new 0 0 130 42" xml:space="preserve">
<g>
	<g>
		<path fill="#B3AB9C" d="M1,24c0-3.9,0.5-7.3,1.5-10.1c1-2.8,2.5-5,4.4-6.8c1.9-1.8,4.3-3,7-3.9c2.7-0.8,5.8-1.3,9.2-1.5l1.6,8
			c-7.4,0.9-11,4.3-10.6,10.3h8.1v21.3H1V24z M30,24c0-3.9,0.5-7.3,1.6-10.1c1.1-2.8,2.5-5,4.4-6.8c1.9-1.8,4.2-3,6.9-3.9
			c2.7-0.8,5.8-1.3,9.2-1.5l1.7,8C46.6,10.6,43,14.1,43.3,20h8.1v21.3H30V24z"/>
		<path fill="#B3AB9C" d="M75.5,33.9c7.4-0.8,10.9-4.2,10.7-10.3h-8.1V2.3h21.3v17.4c0,4-0.5,7.4-1.5,10.2c-1,2.8-2.5,5-4.4,6.8
			c-1.9,1.8-4.3,3-7,3.9c-2.7,0.8-5.8,1.3-9.2,1.4L75.5,33.9z M104.6,33.9c7.4-0.8,10.9-4.2,10.7-10.3h-8.2V2.3h21.3v17.4
			c0,4-0.5,7.4-1.5,10.2c-1,2.8-2.5,5-4.4,6.8c-1.9,1.8-4.3,3-7,3.9c-2.7,0.8-5.8,1.3-9.1,1.4L104.6,33.9z"/>
	</g>
</g>
<g>
</g>
<g>
</g>
<g>
</g>
<g>
</g>
<g>
</g>
<g>
</g>
<g>
</g>
<g>
</g>
<g>
</g>
<g>
</g>
<g>
</g>
<g>
</g>
<g>
</g>
<g>
</g>
<g>
</g>
</svg>
