<?xml version="1.0" encoding="utf-8"?>
<!-- Generator: Adobe Illustrator 22.1.0, SVG Export Plug-In . SVG Version: 6.00 Build 0)  -->
<svg version="1.1" id="Capa_1" xmlns="http://www.w3.org/2000/svg" xmlns:xlink="http://www.w3.org/1999/xlink" x="0px" y="0px"
	 width="400px" height="110px" viewBox="0 0 400 110" enable-background="new 0 0 400 110" xml:space="preserve">
<g>
	<g>
		<path fill="#FFFFFF" stroke="#FFFFFF" stroke-width="0.25" stroke-miterlimit="10" d="M28.8,69.4c-3.3,6.6-6.7,13.2-10.1,19.7
			c-0.6,1.2-1.3,2.7-3,2.6c-1.7-0.1-1.9-1.8-2.3-3.1c-1.9-6.4-0.6-12.9-0.7-19.4c-0.2-14.8,0.9-29.5,2.7-44.2c0-0.4,0.1-0.8,0.1-1.1
			c0.4-2,0.5-4.5,3.1-4.7c2.4-0.2,3.5,2,4.2,3.9c0.9,2.3,1.6,4.8,2,7.3c1.7,9.1,3.1,18.3,4.9,27.5c2,10.2,3,20.5,4.1,30.7
			c0.2,1.6,0.4,3.3,0.9,4.9C35.3,80.6,38.4,68,38.3,55c0-1.1,0.2-2.3,0.1-3.4c-0.1-1.6,0.1-3.5,1.9-3.7c1.8-0.2,2.3,1.8,2.7,3.1
			c1.8,5.4,2.3,10.9,2.7,16.5c0.5,7,1,14.1,3.4,20.9c4.1-13.8,6.9-27.8,8.7-42.1c3.7,11.3,0.7,23.7,5.8,35.8c3.7-9,1.4-17.5,2-26.5
			c2,1.9,1.6,3.5,1.6,4.9c-0.1,6.1,1.6,11.8,3.6,17.5c0.5,1.5,1.2,3.6,3.4,2.6c2.3-1.1,0.8-2.6,0-4.1c-3-5.9-4.8-12.1-3.2-18.8
			c1.3-5.2,2.6-10.4,4-15.6c1.2-4.1,3.7-4.7,6.6-1.5c3.8,4.2,3.4,9.4,2.7,14.5c-0.9,6.8-2.8,13.5-5.6,19.8c-0.4,0.9-0.9,1.8-0.5,3.1
			c3.3,0,4.6-2.4,5.3-5c2-7.1,4.3-14.2,4.5-21.7c0.1-2.7,0.2-5.5,2.6-7.8c1.4,2.5,0.1,4.5-0.3,6.5c-1.5,6.9-1.3,13.7,1,20.3
			c0.4,1.2,1,2.4,1.7,3.4c0.9,1.4,1.9,1.3,2.4-0.3c2.6-8.1,5.4-16.2,4.6-25c-0.2-2.5,0-5.1,0.1-7.6c0-0.4,0.4-1.1,0.7-1.1
			c0.8-0.2,1.1,0.5,1.1,1.2c0,3.3,0.1,6.6,0,9.9c-0.2,5.3,0.8,10.4,3.2,15.2c0.4,0.8,0.7,1.8,1.8,1.8c1-0.1,1.3-1.1,1.5-2
			c1.2-4.8,3.2-9.3,1.9-14.6c-1-3.7-0.5-7.6,0.8-11.3c0.4-1.1,1.1-2.4,2.3-2.3c1.7,0.1,1,1.7,1.1,2.8c0.3,3.6-0.1,7.2-1.2,10.6
			c-1.4,4.4,0,7.9,2.6,11.7c4.5-6.5,3.8-13.7,4.6-20.9c2.2,4-0.5,9.1,3.5,13c-0.8-7.9,1.9-14.9,3.5-22c0.2-0.9,0.4-1.8,0.7-2.6
			c0.8-2,2.1-3.9,4.4-3.7c2.2,0.2,2.8,2.3,3.3,4.2c1.1,4.5,0.1,9.1,0.5,13.6c5.7-13.5,6.5-27.8,6.7-42.1c0.6,0,1.3,0.1,1.9,0.1
			c0.1,14.9-0.2,29.8,0.6,44.7c1.4-5.7,3-11.3,5.8-16.5c0.5-0.9,0.8-2.3,2.1-1.8c1.2,0.5,0.5,1.8,0.4,2.7c-0.6,4.5-3,8.4-4.1,12.7
			c-1.2,4.7,0.5,6.4,5.1,4.9c8.5-2.6,16.1-7.1,24-10.9c4.8-2.4,9.8-4.3,15.1-5.5c0.7-0.2,1.6-0.6,1.9,0.5c0.2,0.7-0.6,1.1-1.2,1.2
			c-12.6,2.7-22.9,10.5-34.7,15.1c-1.7,0.6-3.4,1.2-5.1,1.7c-2.9,0.9-5.5,0.4-7.8-2.2c-0.4,2.7-0.8,5.3-1.3,7.9
			c-0.2,1.2-0.2,3.1-1.6,3.1c-1.6,0-1.2-1.9-1.3-3.1c-0.2-8.5-0.2-17-0.4-25.6c0-0.5,0-1-0.8-1.6c-0.6,2.2-1.1,4.5-1.7,6.7
			c-1.6,5.9-3,11.9-4.9,17.7c-1,3-2.1,6.8-6,7.1c-3.8,0.2-5.6-3.1-7.1-6.1c-0.3-0.5-0.6-1.1-1.3-2.4c-0.8,3-1.3,5.3-1.9,7.5
			c-0.4,1.6-0.7,3.6-2.6,3.9c-2.1,0.3-2.3-2-3.2-3.2c-0.4-0.6-0.6-1.3-1.3-2.8c-1,3.6-1.2,6.6-2.4,9.3c-0.5,1.1-1,2.2-2.3,2.3
			c-1.2,0.1-1.6-1.1-2.1-1.9c-1.6-2.4-2.7-5.1-3.9-9c-1.2,4.9-2.1,8.6-3.2,12.4c-0.6,2-0.6,4.9-3.2,5.1c-2.9,0.3-3.1-2.9-4.1-4.8
			c-1.4-2.7-1.8-5.7-3.1-8.7c-0.9,3.6-1.9,7.3-2.7,10.9c-0.8,3.2-2.5,5.2-5.9,5.6c-0.8,0.1-1.4,0.3-2.1,0.8c-3.8,3-4.7,2.8-7-1.5
			c-0.5-0.9-0.9-1.9-1.2-2.8c-0.3-0.8-0.5-1.6-1.4-2.5c-0.4,1.9-0.6,3.9-1.1,5.7c-0.4,1.5-0.1,3.8-2.3,3.8c-2,0-2.3-2.2-2.7-3.7
			c-1.4-4.4-1.9-8.9-2-13.6c-0.1-3.5,0.1-7.1-1-11.4c-1.7,9.5-3.1,18.3-5.3,26.9c-0.6,2.2-1,4.5-1.7,6.7c-0.3,1-0.1,2.6-1.8,2.5
			c-1.5,0-1.6-1.4-1.9-2.5c-1.5-7.1-2.4-14.3-2.8-21.6c-0.2-4.3-0.7-8.6-1.7-12.9c-0.4-1.7-0.6-3.5-3.1-5.2c0,20-4.5,39-3.2,59.4
			c-2.4-2-1.9-3.5-2.1-4.8C33,92.5,31.8,81.7,30.6,71c-0.1-1.1,0.2-2.8-1.9-1.5c0.2-1.8,1.4-3.3,1-5.4c-2.1-11.2-3.9-22.5-5.8-33.8
			c-0.5-2.7-1-5.5-2.5-8c-0.6-0.9-1.2-2.2-2.5-1.9c-1.4,0.3-1.9,1.6-2,2.9c-1,12-3.1,24-2.6,36.1c0.3,8.6-1,17.3,0,25.9
			c0.2,1.8-0.2,4.4,2.1,4.8c1.6,0.2,2-2.2,2.8-3.7C22,80.6,24.4,74.4,28.8,69.4z M76.3,77.7c4.3-9.9,7.5-18.8,7.2-28.6
			c-0.1-2.2-0.5-4.3-1.7-6.2c-0.8-1.3-1.8-2.7-3.4-2.7c-2,0-2.2,1.9-2.6,3.3c-1.5,5.1-2.5,10.4-3.6,15.6
			C70.8,65.6,73.2,71.1,76.3,77.7z M127.4,38.1c0.1,0,0.1,0,0.2,0c-0.4,1.5-0.8,2.9-1.1,4.4c-1,4.9-1.7,9.8,0.2,14.6
			c0.3,0.8,0.6,1.8,1.6,2c1,0.2,1.6-0.8,2-1.6c4.5-8.5,5.9-17.5,4.2-26.9c-0.2-1.1-0.6-2.4-1.9-2.6c-1.6-0.2-2.2,1.2-2.6,2.3
			C128.9,33,128.2,35.5,127.4,38.1z M113,40.1c-1.3,3.4-2.4,6.8-0.8,11.3C113,47.2,113.5,43.7,113,40.1z"/>
	</g>
	<g>
		<g>
			<path fill="#FFFFFF" d="M241.3,37.2h5.6l2.7,10.5h0l2.5-10.5h5.7v15.5h-4v-9.6h0c-0.3,1.6-0.5,2.6-0.8,3.8l-1.6,5.8h-3.7
				l-1.6-5.8c-0.4-1.3-0.5-2-0.9-4h0v9.8h-3.7V37.2z"/>
			<path fill="#FFFFFF" d="M264.9,37.1h3.9l5.5,15.6h-4.2l-0.9-2.9h-4.9l-1,2.9h-3.8L264.9,37.1z M268.2,46.8l-1.4-4.3h0l-1.5,4.3
				H268.2z"/>
			<path fill="#FFFFFF" d="M276,37.2h6.1c4,0,6.4,1.3,6.4,5.1c0,2.4-1,3.8-3.1,4.5l3.3,5.9h-4.4l-3-5.4h-1.2v5.4H276V37.2z
				 M281.9,44.1c1.7,0,2.5-0.5,2.5-1.8s-0.8-1.8-2.5-1.8h-1.8v3.5H281.9z"/>
			<path fill="#FFFFFF" d="M291.2,37.2h4.2v15.5h-4.2V37.2z"/>
			<path fill="#FFFFFF" d="M302.6,37.1h3.9l5.5,15.6h-4.2l-0.9-2.9H302l-1,2.9h-3.8L302.6,37.1z M305.9,46.8l-1.4-4.3h0l-1.5,4.3
				H305.9z"/>
			<path fill="#FFFFFF" d="M319.1,37.2h4.2v5.6l4.3-5.6h4.9l-5.2,6.1l5.7,9.4h-4.7l-3.7-6.2l-1.2,1.4v4.8h-4.2V37.2z"/>
			<path fill="#FFFFFF" d="M334.7,37.2h4.2v15.5h-4.2V37.2z"/>
			<path fill="#FFFFFF" d="M341.9,37.2h5.6l2.7,10.5h0l2.5-10.5h5.7v15.5h-4v-9.6h0c-0.3,1.6-0.5,2.6-0.8,3.8l-1.6,5.8h-3.7
				l-1.6-5.8c-0.4-1.3-0.5-2-0.9-4h0v9.8h-3.7V37.2z"/>
			<path fill="#FFFFFF" d="M241.6,65.6h9.8v2.4h-7.1v4.2h5.2v2.3h-5.2v6.6h-2.6V65.6z"/>
			<path fill="#FFFFFF" d="M251.2,75.6c0-4.1,2.7-5.8,5.4-5.8c2.7,0,5.4,1.7,5.4,5.8c0,4.1-2.7,5.8-5.4,5.8
				C254,81.4,251.2,79.7,251.2,75.6z M259.5,75.6c0-2.1-0.9-3.6-2.8-3.6c-1.9,0-2.8,1.3-2.8,3.6c0,2.1,0.9,3.6,2.8,3.6
				C258.5,79.2,259.5,77.9,259.5,75.6z"/>
			<path fill="#FFFFFF" d="M264.2,78v-8h2.6v7.4c0,1.2,0.5,1.8,1.7,1.8c1.1,0,2.1-0.6,3-1.4V70h2.6v11.1h-2.6v-1.5
				c-0.7,0.8-2.1,1.7-4.1,1.7C265.5,81.4,264.2,80.2,264.2,78z"/>
			<path fill="#FFFFFF" d="M277,70h2.6v1.5c0.7-0.8,2.1-1.7,4.1-1.7c2,0,3.2,1.2,3.2,3.4v8h-2.6v-7.3c0-1.2-0.5-1.8-1.7-1.8
				s-2.1,0.6-3,1.4v7.7H277V70z"/>
			<path fill="#FFFFFF" d="M289,75.6c0-3.9,1.9-5.8,4.8-5.8c1.2,0,2.4,0.5,3.2,1.4v-5.6h2.6v12.8c0,1.3,0.1,2.2,0.3,2.7h-2.7
				c-0.1-0.3-0.3-0.9-0.3-1.5c-0.8,0.9-1.9,1.7-3.5,1.7C290.9,81.3,289,79.5,289,75.6z M297,77.8v-4.5c-0.7-0.9-1.7-1.4-2.6-1.4
				c-2,0-2.7,1.3-2.7,3.7c0,2.3,1,3.5,2.7,3.5C295.3,79.2,296.4,78.5,297,77.8z"/>
			<path fill="#FFFFFF" d="M301.8,75.6c0-4.2,3-5.8,5.3-5.8c2.5,0,4.9,1.5,4.9,6v0.6h-7.6c0.1,2,1.3,2.9,3,2.9
				c1.4,0,2.3-0.5,3.1-1.3l1.4,1.3c-1.2,1.3-2.7,2-4.7,2C304.4,81.4,301.8,79.7,301.8,75.6z M309.6,74.5c-0.1-1.7-1-2.6-2.5-2.6
				c-1.3,0-2.4,0.7-2.7,2.6H309.6z"/>
			<path fill="#FFFFFF" d="M314.3,70h2.6v1.8h0c0.7-1.1,1.9-2,4-2h0.2l-0.1,2.4c-0.1,0-0.5,0-0.7,0c-1.7,0-2.7,0.8-3.4,2v7h-2.6V70z
				"/>
			<path fill="#FFFFFF" d="M327.3,77.3c0-2.4,1.7-3.7,3.6-4.7c-0.6-1.2-1-2.3-1-3.5c0-2,1.3-3.8,4.1-3.8c2.6,0,3.7,1.5,3.7,3.2
				c0,2.2-1.7,3.5-3.7,4.5c0.3,0.5,0.7,1,1.1,1.5c0.8,1,1.5,1.8,2.1,2.4c0.6-1,1.1-2.3,1.3-3.7h2.3c-0.3,1.8-0.8,3.6-1.8,5
				c1,0.7,1.9,1,3,1v2.2c-1.8,0-3.2-0.4-4.6-1.4c-1.2,0.9-2.6,1.4-4.6,1.4C329.2,81.4,327.3,79.7,327.3,77.3z M335.6,78.6
				c-0.8-0.7-1.5-1.6-2.5-2.8c-0.5-0.6-0.9-1.2-1.3-1.7c-1.2,0.7-1.9,1.7-1.9,2.8c0,1.6,1.1,2.4,3,2.4
				C333.9,79.3,334.8,79.2,335.6,78.6z M335.4,68.8c0-0.8-0.5-1.4-1.4-1.4c-1,0-1.7,0.5-1.7,1.7c0,0.9,0.3,1.7,0.8,2.6
				C334.4,70.9,335.4,70.1,335.4,68.8z"/>
			<path fill="#FFFFFF" d="M348.4,73.3c0-5.2,2.9-8,6.8-8c3.6,0,5.3,2,6,4.8l-2.5,0.7c-0.6-2.1-1.5-3.1-3.5-3.1
				c-2.6,0-4.2,2-4.2,5.6c0,3.7,1.6,5.7,4.2,5.7c2,0,3.1-1,3.7-3.3l2.5,0.6c-0.8,3.1-2.7,5.2-6.2,5.2
				C351.2,81.4,348.4,78.7,348.4,73.3z"/>
			<path fill="#FFFFFF" d="M364.2,65.6h10v2.4h-7.4v3.9h5.4v2.3h-5.4v4.5h7.8v2.4h-10.4V65.6z"/>
			<path fill="#FFFFFF" d="M375.8,73.4c0-5.2,3.1-8.1,7-8.1c3.9,0,7,2.8,7,8.1c0,5.2-3.1,8.1-7,8.1
				C378.9,81.4,375.8,78.6,375.8,73.4z M387.2,73.4c0-3.6-1.7-5.6-4.3-5.6c-2.6,0-4.4,2-4.4,5.6c0,3.6,1.7,5.7,4.4,5.7
				C385.4,79.1,387.2,77,387.2,73.4z"/>
		</g>
	</g>
</g>
<g>
</g>
<g>
</g>
<g>
</g>
<g>
</g>
<g>
</g>
<g>
</g>
<g>
</g>
<g>
</g>
<g>
</g>
<g>
</g>
<g>
</g>
<g>
</g>
<g>
</g>
<g>
</g>
<g>
</g>
</svg>
