<?xml version="1.0" encoding="utf-8"?>
<!-- Generator: Adobe Illustrator 22.1.0, SVG Export Plug-In . SVG Version: 6.00 Build 0)  -->
<svg version="1.1" id="Capa_1" xmlns="http://www.w3.org/2000/svg" xmlns:xlink="http://www.w3.org/1999/xlink" x="0px" y="0px"
	 width="330px" height="80px" viewBox="0 0 330 80" enable-background="new 0 0 330 80" xml:space="preserve">
<g>
	<path fill="#FFFFFF" d="M140.1,9.8h20.1v6.3h-12.5v4.6h8.9v5.9h-8.9v5.2h13.1v6.1h-20.7V9.8z"/>
	<path fill="#FFFFFF" d="M162.6,31.7l5.6-3.5c1.7,2.7,4.4,4.3,7.4,4.3c2.3,0,4.1-0.7,4.1-2.4c0-1.8-2.2-2.5-5-3.2
		c-4.6-1.2-10.7-2.4-10.7-8.7c0-5.7,4.3-8.9,10.7-8.9c6,0,9.5,2.8,11.8,5.5l-5.1,4.2c-1.6-1.9-4.3-3.5-6.7-3.5
		c-2.2,0-3.3,0.7-3.3,2.1c0,1.9,2.2,2.5,5,3.2c4.6,1.1,10.8,2.5,10.8,8.8c0,4.5-3.2,8.9-11.8,8.9C168.9,38.4,165,35.5,162.6,31.7z"
		/>
	<path fill="#FFFFFF" d="M196.5,16.1h-8.1V9.8h23.8v6.3h-8.1v21.8h-7.6V16.1z"/>
	<path fill="#FFFFFF" d="M219.8,9.6h7.1l10,28.2h-7.7l-1.7-5.2h-8.9l-1.8,5.2h-6.9L219.8,9.6z M225.7,27.2l-2.6-7.8H223l-2.7,7.8
		H225.7z"/>
	<path fill="#FFFFFF" d="M239.8,9.8h10.1l4.9,19.1h0.1l4.4-19.1h10.3v28.1h-7.3V20.5h-0.1c-0.5,2.9-0.9,4.7-1.5,6.8l-3,10.6h-6.7
		l-2.9-10.6c-0.6-2.3-1-3.5-1.6-7.2h-0.1v17.8h-6.8V9.8z"/>
	<path fill="#FFFFFF" d="M273.5,23.8c0-10.3,7-14.6,13.8-14.6c6.8,0,13.8,4.3,13.8,14.6c0,10.3-7,14.6-13.8,14.6
		C280.6,38.4,273.5,34.1,273.5,23.8z M293.6,23.8c0-5.2-2.2-8.3-6.2-8.3c-4,0-6.2,3.2-6.2,8.3c0,5.2,2.2,8.5,6.2,8.5
		C291.3,32.3,293.6,29,293.6,23.8z"/>
	<path fill="#FFFFFF" d="M303.1,31.7l5.6-3.5c1.7,2.7,4.4,4.3,7.4,4.3c2.3,0,4.1-0.7,4.1-2.4c0-1.8-2.2-2.5-5-3.2
		c-4.6-1.2-10.7-2.4-10.7-8.7c0-5.7,4.3-8.9,10.7-8.9c6,0,9.5,2.8,11.8,5.5l-5.1,4.2c-1.6-1.9-4.3-3.5-6.7-3.5
		c-2.2,0-3.3,0.7-3.3,2.1c0,1.9,2.2,2.5,5,3.2c4.6,1.1,10.8,2.5,10.8,8.8c0,4.5-3.2,8.9-11.8,8.9C309.3,38.4,305.5,35.5,303.1,31.7z
		"/>
	<path fill="#FFFFFF" d="M56.7,54.8c0-10.3,6-14.6,13.2-14.6c7.7,0,10.7,4,11.9,9l-7.2,2.1c-0.8-2.7-1.8-4.8-4.8-4.8
		c-3.8,0-5.5,3.1-5.5,8.3c0,5.2,1.9,8.5,5.6,8.5c3,0,4.2-1.9,5.1-5.4l7.2,1.6c-1.4,5.7-4.6,9.8-12.3,9.8
		C62.5,69.4,56.7,65.1,56.7,54.8z"/>
	<path fill="#FFFFFF" d="M84.5,54.8c0-10.3,7-14.6,13.8-14.6c6.8,0,13.8,4.3,13.8,14.6s-7,14.6-13.8,14.6
		C91.5,69.4,84.5,65.1,84.5,54.8z M104.5,54.8c0-5.2-2.2-8.3-6.2-8.3c-4,0-6.2,3.2-6.2,8.3s2.2,8.5,6.2,8.5
		C102.3,63.3,104.5,60,104.5,54.8z"/>
	<path fill="#FFFFFF" d="M116,40.8h7.5l10.3,15.8h0.1V40.8h7v28.1h-7l-10.8-15.7H123v15.7h-7V40.8z"/>
	<path fill="#FFFFFF" d="M146.1,40.8h20.1v6.3h-12.5v4.6h8.9v5.9h-8.9v5.2h13.1v6.1h-20.7V40.8z"/>
	<path fill="#FFFFFF" d="M168.5,54.8c0-10.3,6-14.6,13.2-14.6c7.7,0,10.7,4,11.9,9l-7.2,2.1c-0.8-2.7-1.8-4.8-4.8-4.8
		c-3.8,0-5.5,3.1-5.5,8.3c0,5.2,1.9,8.5,5.6,8.5c3,0,4.2-1.9,5.1-5.4l7.2,1.6c-1.4,5.7-4.6,9.8-12.3,9.8
		C174.3,69.4,168.5,65.1,168.5,54.8z"/>
	<path fill="#FFFFFF" d="M203,47.1h-8.1v-6.3h23.8v6.3h-8.1v21.8H203V47.1z"/>
	<path fill="#FFFFFF" d="M226.2,40.6h7.1l10,28.2h-7.7l-1.7-5.2H225l-1.8,5.2h-6.9L226.2,40.6z M232.2,58.2l-2.6-7.8h-0.1l-2.7,7.8
		H232.2z"/>
	<path fill="#FFFFFF" d="M246.3,40.8h9.2c8.4,0,15.5,3.2,15.5,13.9c0,11.1-7.2,14.2-15.5,14.2h-9.2V40.8z M255.9,62.8
		c5.7,0,7.4-2.4,7.4-8.1c0-5.2-1.7-7.6-7.5-7.6h-2v15.7H255.9z"/>
	<path fill="#FFFFFF" d="M273.5,54.8c0-10.3,7-14.6,13.8-14.6c6.8,0,13.8,4.3,13.8,14.6s-7,14.6-13.8,14.6
		C280.6,69.4,273.5,65.1,273.5,54.8z M293.6,54.8c0-5.2-2.2-8.3-6.2-8.3c-4,0-6.2,3.2-6.2,8.3s2.2,8.5,6.2,8.5
		C291.3,63.3,293.6,60,293.6,54.8z"/>
	<path fill="#FFFFFF" d="M303.1,62.7l5.6-3.5c1.7,2.7,4.4,4.3,7.4,4.3c2.3,0,4.1-0.7,4.1-2.4c0-1.8-2.2-2.5-5-3.2
		c-4.6-1.2-10.7-2.4-10.7-8.7c0-5.7,4.3-8.9,10.7-8.9c6,0,9.5,2.8,11.8,5.5l-5.1,4.2c-1.6-1.9-4.3-3.5-6.7-3.5
		c-2.2,0-3.3,0.7-3.3,2.1c0,1.9,2.2,2.5,5,3.2c4.6,1.1,10.8,2.5,10.8,8.8c0,4.5-3.2,8.9-11.8,8.9C309.3,69.4,305.5,66.5,303.1,62.7z
		"/>
</g>
<g>
	<path fill="#FFFFFF" d="M1.8,38.9V35l20.1-8.9v6L9.7,36.9l12.2,4.8v6L1.8,38.9z"/>
	<path fill="#FFFFFF" d="M26.5,38.9V35l20.1-8.9v6l-12.2,4.8l12.2,4.8v6L26.5,38.9z"/>
</g>
<g>
</g>
<g>
</g>
<g>
</g>
<g>
</g>
<g>
</g>
<g>
</g>
<g>
</g>
<g>
</g>
<g>
</g>
<g>
</g>
<g>
</g>
<g>
</g>
<g>
</g>
<g>
</g>
<g>
</g>
</svg>
