<?xml version="1.0" encoding="utf-8"?>
<!-- Generator: Adobe Illustrator 22.1.0, SVG Export Plug-In . SVG Version: 6.00 Build 0)  -->
<svg version="1.1" id="Capa_1" xmlns="http://www.w3.org/2000/svg" xmlns:xlink="http://www.w3.org/1999/xlink" x="0px" y="0px"
	 width="330px" height="80px" viewBox="0 0 330 80" enable-background="new 0 0 330 80" xml:space="preserve">
<g>
	<path fill="#FFFFFF" d="M113.3,9.8h7.6l2.4,11.1c0.5,1.8,0.8,3.2,1.2,5.8h0.1c0.3-2.5,0.7-4,1.1-5.8l2.3-11.1h6.9l2.5,11.1
		c0.5,2.1,0.8,3,1.3,5.7h0.1c0.3-2.7,0.6-3.5,1.1-5.7l2.2-11.2h7l-7.3,28.1h-6.3l-3.8-17.6h-0.1l-4.3,17.6h-6.5L113.3,9.8z"/>
	<path fill="#FFFFFF" d="M152.2,9.8h20.1v6.3h-12.5v4.6h8.9v5.9h-8.9v5.2h13.1v6.1h-20.7V9.8z"/>
	<path fill="#FFFFFF" d="M178.3,16.6h-2.5V9.8h7.5V16l-3.4,5.4h-3.5L178.3,16.6z"/>
	<path fill="#FFFFFF" d="M187.6,9.8h11c7.2,0,11.6,2.4,11.6,9.2c0,4.4-1.9,7-5.5,8.2l6,10.8h-8.1l-5.4-9.8h-2.1v9.8h-7.4V9.8z
		 M198.4,22.3c3.1,0,4.5-0.9,4.5-3.2c0-2.4-1.4-3.2-4.5-3.2h-3.3v6.4H198.4z"/>
	<path fill="#FFFFFF" d="M215,9.8H235v6.3h-12.5v4.6h8.9v5.9h-8.9v5.2h13.1v6.1H215V9.8z"/>
	<path fill="#FFFFFF" d="M256.9,9.6h7.1l10,28.2h-7.7l-1.7-5.2h-8.9l-1.8,5.2H247L256.9,9.6z M262.8,27.2l-2.6-7.8h-0.1l-2.7,7.8
		H262.8z"/>
	<path fill="#FFFFFF" d="M276.9,9.8h7.6v22h11.8v6.1h-19.4V9.8z"/>
	<path fill="#FFFFFF" d="M299.6,9.8h7.6v22H319v6.1h-19.4V9.8z"/>
	<path fill="#FFFFFF" d="M72.2,54.8c0-10.3,6-14.6,13.2-14.6c7.7,0,10.7,4,11.9,9l-7.2,2.1c-0.8-2.7-1.8-4.8-4.8-4.8
		c-3.8,0-5.5,3.1-5.5,8.3c0,5.2,1.9,8.5,5.6,8.5c3,0,4.2-1.9,5.1-5.4l7.2,1.6c-1.4,5.7-4.6,9.8-12.3,9.8
		C78,69.4,72.2,65.1,72.2,54.8z"/>
	<path fill="#FFFFFF" d="M100,54.8c0-10.3,7-14.6,13.8-14.6c6.8,0,13.8,4.3,13.8,14.6s-7,14.6-13.8,14.6C107,69.4,100,65.1,100,54.8
		z M120,54.8c0-5.2-2.2-8.3-6.2-8.3c-4,0-6.2,3.2-6.2,8.3s2.2,8.5,6.2,8.5C117.8,63.3,120,60,120,54.8z"/>
	<path fill="#FFFFFF" d="M131.6,40.8h7.5l10.3,15.8h0.1V40.8h7v28.1h-7l-10.8-15.7h-0.1v15.7h-7V40.8z"/>
	<path fill="#FFFFFF" d="M161.6,40.8h7.5l10.3,15.8h0.1V40.8h7v28.1h-7l-10.8-15.7h-0.1v15.7h-7V40.8z"/>
	<path fill="#FFFFFF" d="M191.7,40.8h20.1v6.3h-12.5v4.6h8.9v5.9h-8.9v5.2h13.1v6.1h-20.7V40.8z"/>
	<path fill="#FFFFFF" d="M214.1,54.8c0-10.3,6-14.6,13.2-14.6c7.7,0,10.7,4,11.9,9l-7.2,2.1c-0.8-2.7-1.8-4.8-4.8-4.8
		c-3.8,0-5.5,3.1-5.5,8.3c0,5.2,1.9,8.5,5.6,8.5c3,0,4.2-1.9,5.1-5.4l7.2,1.6c-1.4,5.7-4.6,9.8-12.3,9.8
		C219.9,69.4,214.1,65.1,214.1,54.8z"/>
	<path fill="#FFFFFF" d="M248.6,47.1h-8.1v-6.3h23.8v6.3h-8.1v21.8h-7.6V47.1z"/>
	<path fill="#FFFFFF" d="M267.5,40.8h20.1v6.3h-12.5v4.6h8.9v5.9h-8.9v5.2h13.1v6.1h-20.7V40.8z"/>
	<path fill="#FFFFFF" d="M292,40.8h9.2c8.4,0,15.5,3.2,15.5,13.9c0,11.1-7.2,14.2-15.5,14.2H292V40.8z M301.7,62.8
		c5.7,0,7.4-2.4,7.4-8.1c0-5.2-1.7-7.6-7.5-7.6h-2v15.7H301.7z"/>
</g>
<g>
	<path fill="#FFFFFF" d="M9.3,38.9V35l20.1-8.9v6l-12.2,4.8l12.2,4.8v6L9.3,38.9z"/>
	<path fill="#FFFFFF" d="M34,38.9V35l20.1-8.9v6L42,36.9l12.2,4.8v6L34,38.9z"/>
</g>
<g>
</g>
<g>
</g>
<g>
</g>
<g>
</g>
<g>
</g>
<g>
</g>
<g>
</g>
<g>
</g>
<g>
</g>
<g>
</g>
<g>
</g>
<g>
</g>
<g>
</g>
<g>
</g>
<g>
</g>
</svg>
